<?xml version="1.0" encoding="UTF-8"?>
<svg id="Layer_2" data-name="Layer 2" xmlns="http://www.w3.org/2000/svg" viewBox="0 0 1500 593.36">
  <defs>
    <style>
      .cls-1 {
        fill: #43755a;
      }

      .cls-2 {
        fill: #fff;
      }
    </style>
  </defs>
  <g id="Layer_1-2" data-name="Layer 1">
    <g>
      <g>
        <path class="cls-2" d="M545.7,317.5v198.43h-107.01v-198.43c0-19.37-4.96-34.96-14.88-46.78-9.92-11.81-23.15-17.72-39.68-17.72-11.82,0-21.98,3.08-30.48,9.22-8.51,6.15-15.24,14.42-20.2,24.81-4.95,10.4-7.43,21.97-7.43,34.72v194.19h-106.3v-198.43c0-19.37-4.85-34.96-14.54-46.78-9.68-11.81-22.79-17.72-39.33-17.72-11.82,0-22.09,3.08-30.83,9.22-8.75,6.15-15.59,14.42-20.55,24.81-4.96,10.4-7.44,21.97-7.44,34.72v194.19H0V161.58h107.01v44.22c9.4-13.27,20.5-24.35,33.32-33.23,20.78-14.41,44.87-21.62,72.28-21.62,23.14,0,43.23,6.97,60.25,20.91,15.14,12.41,27.2,29.23,36.16,50.44,10.29-20.71,24.1-37.29,41.45-49.73,20.08-14.41,43.11-21.62,69.09-21.62s47.72,6.97,66.62,20.91c18.89,13.94,33.53,33.43,43.94,58.46,10.39,25.05,15.59,54.11,15.59,87.18Z"/>
        <path class="cls-2" d="M1293.28,161.58v354.35h-107.73v-44.2c-8.57,11.78-18.48,22.02-29.76,30.73-20.8,16.06-44.41,24.1-70.88,24.1-25.05,0-47.01-6.97-65.9-20.9-18.9-13.94-33.55-33.43-43.94-58.47-10.4-25.04-15.59-54.09-15.59-87.16v-198.44h107.01v198.44c0,12.28,2.23,23.38,6.74,33.31,4.48,9.92,10.98,17.6,19.49,23.03,8.5,5.43,18.42,8.15,29.76,8.15s22.56-3.07,32.25-9.22c9.67-6.14,17.25-14.29,22.68-24.45,5.43-10.15,8.15-21.85,8.15-35.08v-194.19h107.73Z"/>
        <path class="cls-2" d="M1393.34,107.72c-12.05-11.8-18.07-26.45-18.07-43.94s6.02-32.48,18.07-45c12.05-12.51,26.81-18.78,44.29-18.78s31.65,6.27,43.94,18.78c12.28,12.52,18.43,27.53,18.43,45s-6.15,32.14-18.43,43.94c-12.29,11.82-26.93,17.72-43.94,17.72s-32.25-5.9-44.29-17.72ZM1384.48,161.58h107.01v354.35h-107.01V161.58Z"/>
      </g>
      <path class="cls-1" d="M947.51,593.36c-1.38,0-2.77-.06-4.18-.19-49.44-4.52-119.19-20.8-178.56-71.77-40.91,25.18-81.98,37.53-109.94,43.5-24.5,5.23-48.6-10.39-53.83-34.89-5.23-24.5,10.39-48.6,34.89-53.83,18.04-3.85,43.53-11.25,69.55-25.25-13.18-21.57-24.2-45.22-32.71-70.39-15.5-45.82-21.98-95.09-18.24-138.73,4.71-55.01,25.33-97.48,58.05-119.6,44.47-30.05,103.51-19.9,138.84,5.65,39.3,28.43,58.93,80.63,55.27,146.98-3.01,54.49-21.21,111.63-49.94,156.77-6.81,10.7-14.12,20.59-21.79,29.71,39.05,28.67,83.86,38.5,116.67,41.5,24.95,2.28,43.32,24.35,41.04,49.29-2.15,23.54-21.93,41.23-45.12,41.23ZM775.24,194.55c-4.77,0-9.06.91-11.91,2.83-7.15,4.83-15.99,23.23-18.47,52.18-3.41,39.75,5.5,93.62,30.34,140.78,1.7-2.41,3.36-4.88,4.97-7.41,20.33-31.94,33.75-74.21,35.89-113.07,1.82-32.96-5.02-59.2-17.86-68.48-6.06-4.39-15.15-6.83-22.97-6.83Z"/>
    </g>
  </g>
</svg>