<?xml version="1.0" encoding="UTF-8"?>
<svg id="Layer_2" data-name="Layer 2" xmlns="http://www.w3.org/2000/svg" viewBox="0 0 2000 788.54">
  <defs>
    <style>
      .cls-1 {
        fill: #ffaaf1;
      }

      .cls-2 {
        fill: #43755a;
      }
    </style>
  </defs>
  <g id="Layer_1-2" data-name="Layer 1">
    <g>
      <g>
        <path d="M103.96,603.08c8.75-5.21,18.5-7.82,29.27-7.82,8.75,0,16.99,1.77,24.73,5.3,7.74,3.53,13.96,8.5,18.67,14.89l59.05-47.44c-12.79-14.8-27.93-26.32-45.42-34.57-17.5-8.24-36.34-12.36-56.52-12.36-24.22,0-46.6,5.98-67.12,17.92-20.53,11.95-36.76,28.18-48.7,48.7-11.95,20.53-17.92,42.9-17.92,67.12s5.97,46.6,17.92,67.12c11.94,20.53,28.17,36.76,48.7,48.7,20.52,11.94,42.9,17.92,67.12,17.92,20.19,0,39.02-4.12,56.52-12.36,17.49-8.24,32.63-19.76,45.42-34.57l-59.05-47.44c-4.72,6.06-10.94,10.94-18.67,14.64-7.74,3.71-15.98,5.55-24.73,5.55-10.77,0-20.53-2.6-29.27-7.82-8.75-5.21-15.57-12.36-20.44-21.45-4.88-9.08-7.32-19.18-7.32-30.28s2.44-20.77,7.32-30.03c4.87-9.25,11.69-16.48,20.44-21.7Z"/>
        <path d="M353.92,567.69v-39.05h-76.21v252.33h76.21v-122.63c0-9.08,3.36-17.24,10.09-24.48,6.73-7.23,16.23-12.78,28.51-16.65,12.28-3.86,25.99-5.8,41.13-5.8v-85.29c-20.19,0-38.35,5.55-54.5,16.65-9.73,6.69-18.13,15-25.23,24.92Z"/>
        <path d="M673.63,541.76c-20.36-13.79-44.33-20.69-71.92-20.69-25.23,0-48.37,5.8-69.39,17.41-21.03,11.61-37.68,27.68-49.96,48.2-12.29,20.53-18.42,43.24-18.42,68.13s6.14,47.61,18.42,68.13c12.28,20.53,28.93,36.59,49.96,48.2,21.02,11.61,44.16,17.41,69.39,17.41,20.19,0,39.87-3.87,59.05-11.61,19.18-7.74,34.82-18.17,46.93-31.29l-49.96-40.37c-6.39,6.73-14.63,11.95-24.73,15.64-10.09,3.71-20.53,5.22-31.29,4.54-12.11-.67-22.8-4.04-32.05-10.09-9.26-6.06-16.49-14.21-21.7-24.48-1.35-2.66-2.52-5.43-3.52-8.33h184.45c3.03-30.61-.34-58.29-10.09-83.02-9.76-24.73-24.81-43.98-45.17-57.78ZM544.18,627.55c1.05-3.24,2.31-6.35,3.78-9.34,5.21-10.6,12.53-18.92,21.95-24.98,9.41-6.06,20.01-9.08,31.79-9.08,10.09,0,18.93,1.85,26.5,5.55,7.57,3.71,13.79,8.92,18.67,15.64,4.87,6.73,7.82,14.13,8.83,22.2h-111.53Z"/>
        <path d="M976.98,562.57c-6.91-9.74-15.06-17.95-24.48-24.59-15.98-11.27-34.4-16.91-55.26-16.91-24.22,0-46.18,5.8-65.86,17.41-19.68,11.61-35.25,27.68-46.68,48.2-11.44,20.53-17.16,43.24-17.16,68.13s5.72,47.61,17.16,68.13c11.43,20.53,27,36.59,46.68,48.2,19.68,11.61,41.63,17.41,65.86,17.41,20.86,0,39.28-5.64,55.26-16.91,9.42-6.64,17.57-14.85,24.48-24.59v33.93h76.21v-252.33h-76.21v33.93ZM968.15,687.86c-5.89,9.93-13.8,17.75-23.72,23.47-9.93,5.72-21.12,8.58-33.56,8.58s-23.89-2.85-34.32-8.58c-10.43-5.72-18.51-13.45-24.22-23.21-5.72-9.75-8.58-20.86-8.58-33.31s2.85-23.13,8.58-33.06c5.72-9.92,13.79-17.74,24.22-23.47,10.42-5.72,22.03-8.58,34.82-8.58,12.11,0,23.13,2.86,33.06,8.58,9.92,5.72,17.83,13.55,23.72,23.47,5.88,9.93,8.83,20.94,8.83,33.06s-2.95,23.14-8.83,33.06Z"/>
        <path d="M1210.79,463.03h-76.71v65.61h-37.35v72.67h37.35v87.81c0,34.66,7.4,59.89,22.21,75.7,14.8,15.82,37.85,23.72,69.14,23.72,6.06,0,12.87-.68,20.44-2.02,7.57-1.35,13.54-3.2,17.92-5.55v-68.13c-4.72,2.7-9,4.54-12.87,5.55-3.87,1.01-8.67,1.51-14.38,1.51-8.07,0-14.38-2.78-18.93-8.33-4.54-5.55-6.81-13.03-6.81-22.46v-87.81h52.99v-72.67h-52.99v-65.61Z"/>
        <polygon points="1582.18 691.21 1526.66 528.64 1445.41 528.64 1536.76 780.97 1628.1 780.97 1719.45 528.64 1637.69 528.64 1582.18 691.21"/>
        <path d="M1988.83,599.54c-9.76-24.73-24.81-43.98-45.17-57.78-20.36-13.79-44.33-20.69-71.92-20.69-25.23,0-48.37,5.8-69.39,17.41-21.03,11.61-37.68,27.68-49.96,48.2-12.29,20.53-18.42,43.24-18.42,68.13s6.14,47.61,18.42,68.13c12.28,20.53,28.93,36.59,49.96,48.2,21.02,11.61,44.16,17.41,69.39,17.41,20.19,0,39.87-3.87,59.05-11.61,19.18-7.74,34.82-18.17,46.93-31.29l-49.96-40.37c-6.39,6.73-14.63,11.95-24.73,15.64-10.09,3.71-20.53,5.22-31.29,4.54-12.11-.67-22.8-4.04-32.05-10.09-9.26-6.06-16.49-14.21-21.7-24.48-1.35-2.66-2.52-5.43-3.52-8.33h184.45c3.03-30.61-.34-58.29-10.09-83.02ZM1814.22,627.55c1.05-3.24,2.31-6.35,3.78-9.34,5.21-10.6,12.53-18.92,21.95-24.98,9.41-6.06,20.01-9.08,31.79-9.08,10.09,0,18.93,1.85,26.5,5.55,7.57,3.71,13.79,8.92,18.67,15.64,4.87,6.73,7.82,14.13,8.83,22.2h-111.53Z"/>
        <path d="M305.57,192.34c7.05,8.39,10.57,19.47,10.57,33.23v140.98h76.03v-140.98c0-23.49-3.7-44.13-11.08-61.93-7.39-17.79-17.8-31.63-31.22-41.54-13.43-9.9-29.2-14.85-47.33-14.85s-34.83,5.12-49.09,15.36c-12.32,8.84-22.13,20.63-29.44,35.35-6.37-15.07-14.93-27.03-25.69-35.85-12.08-9.9-26.35-14.85-42.8-14.85-19.47,0-36.59,5.12-51.36,15.36-9.1,6.31-16.99,14.18-23.66,23.61v-31.42H4.48v251.75h76.03v-137.96c0-9.06,1.76-17.28,5.29-24.67,3.52-7.38,8.39-13.26,14.6-17.62,6.21-4.36,13.51-6.55,21.9-6.55,11.75,0,21.06,4.2,27.94,12.59,6.88,8.39,10.32,19.47,10.32,33.23v140.98h75.52v-137.96c0-9.06,1.76-17.28,5.29-24.67,3.52-7.38,8.31-13.26,14.35-17.62,6.04-4.36,13.26-6.55,21.65-6.55,11.75,0,21.15,4.2,28.2,12.59Z"/>
        <path d="M728.44,359.24c13.42,9.9,29.03,14.85,46.83,14.85,18.79,0,35.58-5.71,50.35-17.12,8.02-6.19,15.06-13.48,21.15-21.85v31.42h76.53V114.8h-76.53v137.96c0,9.4-1.94,17.71-5.79,24.92-3.86,7.22-9.24,13.01-16.11,17.37-6.88,4.37-14.52,6.55-22.91,6.55s-15.1-1.93-21.15-5.79c-6.04-3.85-10.66-9.31-13.85-16.36-3.19-7.05-4.78-14.93-4.78-23.66V114.8h-76.03v140.98c0,23.5,3.69,44.14,11.08,61.93,7.38,17.8,17.79,31.64,31.22,41.54Z"/>
        <path d="M1025.86,0c-12.42,0-22.91,4.45-31.47,13.34-8.56,8.9-12.84,19.56-12.84,31.97s4.28,22.83,12.84,31.22c8.56,8.39,19.05,12.59,31.47,12.59s22.48-4.19,31.22-12.59c8.72-8.39,13.09-18.79,13.09-31.22s-4.37-23.07-13.09-31.97c-8.73-8.89-19.13-13.34-31.22-13.34Z"/>
        <rect x="988.09" y="114.8" width="76.03" height="251.75"/>
      </g>
      <path class="cls-2" d="M668.62,421.56c-.98,0-1.97-.04-2.97-.14-35.12-3.21-84.68-14.77-126.86-50.99-29.06,17.89-58.24,26.66-78.11,30.91-17.4,3.71-34.53-7.38-38.24-24.79-3.72-17.4,7.38-34.53,24.79-38.24,12.82-2.74,30.93-8,49.41-17.94-9.36-15.32-17.19-32.13-23.24-50.01-11.01-32.55-15.62-67.55-12.96-98.56,3.35-39.08,18-69.26,41.24-84.97,31.59-21.35,73.54-14.14,98.64,4.02,27.92,20.2,41.87,57.29,39.26,104.42-2.14,38.71-15.07,79.31-35.48,111.38-4.84,7.6-10.03,14.63-15.48,21.11,27.74,20.37,59.58,27.35,82.89,29.48,17.72,1.62,30.78,17.3,29.16,35.02-1.53,16.73-15.58,29.29-32.05,29.3ZM546.23,138.22c-3.39,0-6.44.64-8.46,2.01-5.08,3.43-11.36,16.5-13.12,37.07-2.42,28.24,3.91,66.51,21.55,100.01,1.21-1.71,2.39-3.46,3.53-5.27,14.44-22.69,23.97-52.72,25.5-80.33,1.29-23.41-3.57-42.06-12.69-48.65-4.31-3.12-10.77-4.85-16.32-4.85Z"/>
      <path class="cls-1" d="M1476.67,712.78c-15.2,27.58-32.59,51.18-54.77,63.35-11.37,6.24-23.12,10.46-34.09,12.05-17.59,3-55.95-12.96-69.36-37.41-19.97-36.4-2.52-194.71,9.29-212.29,2.22-2.7,4.75-4.83,7.6-6.39,19.33-10.61,54.56-.35,62.06,13.3,4.68,8.53-4.72,58.82-7.56,121.06-1.28,27.34-.33,51.98,5.6,62.78,3.74,6.82,11.05,8,21.28,2.38,11.37-6.24,21.68-25.22,33.16-51.49,15.75-36.02,16.56-83.08,31.35-91.2,7.39-4.06,17.14.22,21.82,8.74,2.19,3.98,3.23,8.59,3.14,13.81-.73,18.9-11.58,69.25-29.51,101.29ZM1394.64,481.06c-18.2,9.99-50.53-.39-58.33-14.6-11.24-20.47,4.86-62.61,16.24-68.85,20.47-11.24,46.9-3.53,53.76,8.97,5.62,10.24,5.86,24.16,5.17,36.38-1.87,19.52-6.03,32.17-16.83,38.09Z"/>
      <path d="M2000,236.56v71.19c-1,1.63-2.27,1.57-3.93,1.77-15.39,1.81-47.7-5.15-62.81-10.27-61.19-20.74-82.41-69.57-156.22-66.16-56.13,2.59-77.94,38.7-124.03,59.48-50.63,22.83-115.98,22.66-166.5-.36-44.94-20.48-67.58-56.02-122.11-59.12-72.63-4.13-92.7,41.63-151.67,63.85-23.03,8.68-47.81,12.65-72.42,12.51v-72.9c11.8.07,23.94-1.1,35.36-3.98,31.36-7.89,55.69-33.39,83.6-48.62,50.09-27.32,114.42-31.34,167.82-11.22,59.85,22.55,78.88,68.11,152.81,63.85,52.66-3.03,73.77-35.89,116.39-56.86,51.48-25.33,119.65-25.97,171.87-2.25,38.78,17.61,65.4,51.68,109.78,57.77,7.3,1,14.69,1.6,22.07,1.3Z"/>
    </g>
  </g>
</svg>